#!OML:ASF E:\Mandelcareful walks\Project 1\Capture day 1\Session 1\Subject1.ASF
:FULLY-SPECIFIED
:DEGREES
983
root 4.1682 14.3715 1.36342 -123.128 -82.5342 131.564
lowerback 25.8111 1.59185 -3.24138
upperback 4.97512 0.649227 -1.08972
thorax -8.83791 0.198154 0.470525
lowerneck -31.8648 1.9938 -0.827363
upperneck 15.9634 4.13735 -4.67461
head 10.3341 1.17867 -0.862215
rclavicle -1.05356e-014 -1.66979e-014
rhumerus -10.6156 -14.8996 -28.4837
rradius 44.7879
rwrist -27.0925
rhand -10.8769 -24.9369
rfingers 7.12502
rthumb 15.1391 -54.3631
lclavicle -1.05356e-014 -1.66979e-014
lhumerus -9.69781 14.32 31.5228
lradius 30.4246
lwrist 5.90358
lhand -25.1721 -19.6826
lfingers 7.12502
lthumb 1.34535 10.2929
rfemur -50.7469 -20.9539 7.03785
rtibia 75.9455
rfoot -24.2029 6.95396
rtoes 0.153443
lfemur -46.5534 17.8775 -19.6838
ltibia 78.0177
lfoot -31.6069 0.306284
ltoes -2.26108
984
root 4.17594 14.2483 1.38519 -124.19 -82.5944 132.386
lowerback 26.1023 1.62669 -3.1891
upperback 5.26863 0.678099 -1.04405
thorax -8.6586 0.194568 0.482731
lowerneck -32.0811 1.9195 -1.07028
upperneck 15.9579 4.09269 -4.45094
head 10.3537 1.16871 -0.749859
rclavicle -1.0138e-014 4.53229e-014
rhumerus -10.2045 -14.7113 -28.8465
rradius 44.9858
rwrist -26.8569
rhand -10.3045 -24.5498
rfingers 7.12502
rthumb 15.6904 -53.9337
lclavicle -1.0138e-014 4.53229e-014
lhumerus -9.28539 14.325 31.839
lradius 30.5172
lwrist 5.92575
lhand -25.0135 -19.7974
lfingers 7.12502
lthumb 1.49848 10.1771
rfemur -51.4371 -20.9981 6.74511
rtibia 77.6182
rfoot -24.4117 7.64876
rtoes -0.995251
lfemur -47.2119 17.8808 -19.4533
ltibia 79.8094
lfoot -32.323 -0.166953
ltoes -0.92632
985
root 4.18162 14.1323 1.40622 -124.923 -82.698 132.9
lowerback 26.9023 1.62352 -3.12081
upperback 5.15849 0.650254 -1.02788
thorax -9.18756 0.183661 0.460993
lowerneck -32.1121 1.87989 -1.18505
upperneck 16.2516 4.0681 -4.27027
head 10.4591 1.16798 -0.669755
rclavicle 1.45113e-014 3.69739e-014
rhumerus -10.1983 -13.9209 -29.1344
rradius 45.3534
rwrist -26.7111
rhand -9.73049 -24.3417
rfingers 7.12502
rthumb 16.2432 -53.6812
lclavicle 1.45113e-014 3.69739e-014
lhumerus -9.28738 13.687 31.9639
lradius 30.7047
lwrist 6.3286
lhand -24.8608 -20.0558
lfingers 7.12502
lthumb 1.64599 9.91756
rfemur -52.0893 -21.0281 6.41966
rtibia 79.2304
rfoot -24.551 8.31899
rtoes -2.06427
lfemur -47.9765 17.9169 -19.3573
ltibia 81.4978
lfoot -32.8692 0.190691
ltoes -2.84908
986
root 4.18803 14.0074 1.42179 -124.79 -82.6358 132.572
lowerback 27.9733 1.68201 -3.32789
upperback 4.77788 0.615606 -1.05315
thorax -10.164 0.190648 0.547544
lowerneck -31.8505 1.91688 -1.0461
upperneck 16.6361 4.09507 -4.33396
head 10.5652 1.17753 -0.710423
rclavicle -1.07344e-014 3.97569e-015
rhumerus -10.5155 -12.7353 -29.3768
rradius 45.7938
rwrist -26.5684
rhand -9.40232 -24.3778
rfingers 7.12502
rthumb 16.5591 -53.6913
lclavicle -1.07344e-014 3.97569e-015
lhumerus -9.55466 12.3534 31.9728
lradius 31.0256
lwrist 7.3215
lhand -24.4826 -19.89
lfingers 7.12502
lthumb 2.01125 10.0803
rfemur -52.8374 -21.0677 5.89782
rtibia 80.8769
rfoot -24.7071 8.95565
rtoes -3.33849
lfemur -48.7986 18.0336 -19.5412
ltibia 83.1105
lfoot -33.3215 0.914537
ltoes -5.88558
987
root 4.194 13.8742 1.43674 -124.922 -82.6089 132.521
lowerback 28.1702 1.74406 -3.40645
upperback 5.04112 0.643838 -1.05166
thorax -9.96528 0.190885 0.586422
lowerneck -31.923 1.87892 -0.947268
upperneck 16.5245 4.0333 -4.50141
head 10.5415 1.13395 -0.798415
rclavicle 2.24627e-014 -2.18663e-014
rhumerus -10.296 -12.7534 -29.8436
rradius 46.0686
rwrist -26.0153
rhand -8.64242 -24.7954
rfingers 7.12502
rthumb 17.2906 -54.0463
lclavicle 2.24627e-014 -2.18663e-014
lhumerus -9.18513 11.8938 32.2676
lradius 31.3026
lwrist 8.22816
lhand -23.7673 -19.4181
lfingers 7.12502
lthumb 2.70211 10.5446
rfemur -53.5959 -21.1998 5.42552
rtibia 82.4955
rfoot -24.8374 9.72199
rtoes -4.33065
lfemur -49.3903 18.0847 -19.5581
ltibia 84.6801
lfoot -33.9931 0.828469
ltoes -5.86052
988
root 4.19475 13.7523 1.45773 -124.764 -82.6058 132.112
lowerback 28.6625 1.72573 -3.41731
upperback 5.13764 0.575836 -1.06997
thorax -10.1007 0.152449 0.59336
lowerneck -31.8372 1.85071 -0.961291
upperneck 16.458 4.00049 -4.5257
head 10.5029 1.1176 -0.810964
rclavicle -9.93923e-016 2.78299e-015
rhumerus -10.2457 -12.298 -30.2795
rradius 46.4644
rwrist -25.6063
rhand -7.85061 -25.4692
rfingers 7.12502
rthumb 18.0526 -54.6514
lclavicle -9.93923e-016 2.78299e-015
lhumerus -9.25409 11.4829 32.4878
lradius 31.6995
lwrist 8.65983
lhand -23.1409 -19.4763
lfingers 7.12502
lthumb 3.30699 10.4778
rfemur -54.1437 -21.4785 4.88189
rtibia 83.9977
rfoot -24.9921 10.6034
rtoes -5.69633
lfemur -49.8607 18.0024 -19.5425
ltibia 86.2357
lfoot -34.6969 0.624828
ltoes -5.36035
